<?xml version="1.0" encoding="UTF-8"?>
<svg version="1.1" xmlns="http://www.w3.org/2000/svg" width="1024" height="1024">
<path d="M0 0 C337.92 0 675.84 0 1024 0 C1024 337.92 1024 675.84 1024 1024 C686.08 1024 348.16 1024 0 1024 C0 686.08 0 348.16 0 0 Z " fill="#090909" transform="translate(0,0)"/>
<path d="M0 0 C17.82 0 35.64 0 54 0 C54.06058594 6.18234375 54.12117188 12.3646875 54.18359375 18.734375 C54.26689451 27.07293046 54.35174658 35.41146941 54.4375 43.75 C54.44852123 44.82194862 54.45954247 45.89389725 54.47089767 46.99832916 C54.81160078 80.00307328 55.2365415 113.00189982 56 146 C62.6620581 139.36120574 69.32134193 132.71964431 75.97718906 126.07462311 C79.06849996 122.98851048 82.16072552 119.90332652 85.25512695 116.8203125 C88.24644643 113.83993119 91.23525121 110.8570486 94.22239494 107.8724823 C95.35727344 106.73943848 96.49302542 105.6072688 97.62970161 104.47602844 C103.03728539 99.09325741 108.36236201 93.70234644 113.32432556 87.89929199 C116.62372238 84.15959303 120.20607865 80.69338218 123.75 77.1875 C124.97541504 75.96776489 124.97541504 75.96776489 126.22558594 74.72338867 C129.68695042 71.2782266 133.15428591 67.8390971 136.62109375 64.39941406 C139.16615188 61.87253492 141.70813131 59.34258685 144.25 56.8125 C145.02311523 56.04768311 145.79623047 55.28286621 146.59277344 54.49487305 C152.65322183 48.46156296 158.34384287 42.31193189 163.41918945 35.41992188 C188.69693962 1.12832503 188.69693962 1.12832503 208.34130859 -1.859375 C227.38656784 -4.21564866 247.05666137 -2.04424518 266 0 C266 14.19 266 28.38 266 43 C258.08 43.495 258.08 43.495 250 44 C244.98272008 47.46478537 244.98272008 47.46478537 240.7366333 51.40817261 C240.23773842 51.93365566 239.73884354 52.45913872 239.22483063 53.0005455 C238.45128361 53.81746054 238.45128361 53.81746054 237.66210938 54.65087891 C236.53312644 55.78574339 235.40079925 56.91728909 234.26544189 58.04577637 C231.21499495 61.09618992 228.21276161 64.19027993 225.2173748 67.29464769 C222.06170574 70.5484922 218.86243069 73.75889269 215.66760254 76.97421265 C209.62653267 83.0669221 203.62425674 89.1963706 197.6356492 95.34060705 C190.17467009 102.99189343 182.66607852 110.59592542 175.15625 118.19921875 C167.48443551 125.96828538 159.81695874 133.74122232 152.18200684 141.54653931 C151.00702626 142.74640515 149.83199882 143.9462251 148.65692139 145.14599609 C146.49452952 147.35385354 144.33576573 149.56516959 142.17913818 151.77865601 C137.47671672 156.58887035 132.73529651 161.27719705 127.60269165 165.63152218 C125.38732765 167.52313776 123.33281661 169.55444209 121.28125 171.62109375 C120.49492188 172.41064453 119.70859375 173.20019531 118.8984375 174.01367188 C118.10695313 174.81353516 117.31546875 175.61339844 116.5 176.4375 C115.26636719 177.67790039 115.26636719 177.67790039 114.0078125 178.94335938 C112.00287887 180.95994959 110.00033747 182.97885236 108 185 C112.41938584 190.35746302 117.14839581 195.10757959 122.25 199.8125 C127.82664828 205.00170665 133.32261837 210.22462573 138.62890625 215.69140625 C140.52858482 217.54101092 142.44919372 219.24851116 144.46484375 220.96484375 C151.24180508 226.84567796 157.42443634 233.3701193 163.72753906 239.74804688 C165.42037988 241.45917307 167.11637537 243.1671297 168.8125 244.875 C169.31483154 245.38562988 169.81716309 245.89625977 170.3347168 246.42236328 C174.38037497 250.49506727 178.65851479 254.24702653 183 258 C194.73159692 268.14916093 206.23436229 278.52240775 217.5 289.1875 C218.29653488 289.94091171 219.09306976 290.69432343 219.91374207 291.4705658 C254.26226306 324.16684579 254.26226306 324.16684579 255.73730469 345.7709198 C255.81778723 356.73988034 254.06876869 367.49398014 251 378 C214.52722455 382.10634597 214.52722455 382.10634597 203.94256592 374.4119873 C196.92044851 368.53862538 191.4311175 361.31275964 186 354 C181.30707823 348.33076886 176.23893733 343.20171909 170.94140625 338.1015625 C169 336 169 336 169 334 C168.34 334 167.68 334 167 334 C165.765625 332.7421875 165.765625 332.7421875 164.25 330.875 C160.70620455 326.69093898 156.89842185 322.84826492 153 319 C148.74597615 314.79134356 144.63614113 310.55969091 140.76953125 305.98828125 C138.00275611 302.87947651 135.01404421 299.99361177 132.05273438 297.07226562 C128.75908448 293.80587352 125.68495522 290.42079478 122.67578125 286.89453125 C120.23467461 284.134772 117.597094 281.58789024 114.97265625 279.00390625 C112.42662171 276.41753849 110.07978443 273.6846472 107.71484375 270.93359375 C106.03995701 269.04505403 104.30052413 267.26844352 102.5 265.5 C100.20673964 263.24202057 98.03571972 260.94003496 95.9375 258.5 C92.43888308 254.44065666 88.78991521 250.53343439 85.125 246.625 C79.67646358 240.81327605 74.29456717 234.95288637 69 229 C64.05889299 231.39243734 59.56385137 233.72202186 56 238 C54.68691637 242.54469519 54.80217019 246.9414669 54.88647461 251.64624023 C54.87914246 253.02659135 54.86785714 254.40692625 54.85293579 255.78721619 C54.82372161 259.51886663 54.84955138 263.24831563 54.88552547 266.9798305 C54.91372859 270.88500927 54.89095736 274.789889 54.87367249 278.69508362 C54.84867743 286.08293613 54.86929753 293.46992368 54.90644604 300.85769659 C54.94652161 309.27132625 54.93553396 317.68464922 54.92032993 326.09833229 C54.89020628 343.39928956 54.93071025 360.69911184 55 378 C36.85 378 18.7 378 0 378 C0 253.26 0 128.52 0 0 Z " fill="#F7F7F7" transform="translate(441,314)"/>
<path d="M0 0 C90.42 0 180.84 0 274 0 C274 88.11 274 176.22 274 267 C257.83 267 241.66 267 225 267 C225 195.39 225 123.78 225 50 C150.75 50 76.5 50 0 50 C0 33.5 0 17 0 0 Z " fill="#F7F7F7" transform="translate(527,222)"/>
<path d="M0 0 C89.76 0 179.52 0 272 0 C272 16.5 272 33 272 50 C198.41 50 124.82 50 49 50 C49 121.61 49 193.22 49 267 C32.83 267 16.66 267 0 267 C0 178.89 0 90.78 0 0 Z " fill="#F7F7F7" transform="translate(223,222)"/>
<path d="M0 0 C16.17 0 32.34 0 49 0 C49 86.46 49 172.92 49 262 C-41.42 262 -131.84 262 -225 262 C-225 245.5 -225 229 -225 212 C-150.75 212 -76.5 212 0 212 C0 142.04 0 72.08 0 0 Z " fill="#F6F6F6" transform="translate(752,524)"/>
<path d="M0 0 C16.17 0 32.34 0 49 0 C49 69.96 49 139.92 49 212 C122.92 212 196.84 212 273 212 C273 228.5 273 245 273 262 C182.91 262 92.82 262 0 262 C0 175.54 0 89.08 0 0 Z " fill="#F7F7F7" transform="translate(223,524)"/>
<path d="M0 0 C21.45 0 42.9 0 65 0 C65 94.05 65 188.1 65 285 C43.55 285 22.1 285 0 285 C0 190.95 0 96.9 0 0 Z " fill="#F8F8F8" transform="translate(334,407)"/>
<path d="M0 0 C21.45 0 42.9 0 65 0 C65 19.8 65 39.6 65 60 C43.55 60 22.1 60 0 60 C0 40.2 0 20.4 0 0 Z " fill="#F6F6F6" transform="translate(334,314)"/>
<path d="M0 0 C74.25 0 148.5 0 225 0 C225 71.61 225 143.22 225 217 C241.17 217 257.34 217 274 217 C274 177.07 274 137.14 274 96 C274.66 96.33 275.32 96.66 276 97 C276.04667686 112.61150446 276.08196762 128.22299016 276.10362434 143.83454704 C276.11394625 151.08291834 276.12802399 158.33124634 276.15087891 165.57958984 C276.17078487 171.89568298 276.18370978 178.21174476 276.18817699 184.52786839 C276.19078913 187.87362811 276.19694761 191.21929812 276.21146011 194.56502914 C276.22589039 198.29584923 276.22798149 202.02648091 276.22705078 205.75732422 C276.23424133 206.87222229 276.24143188 207.98712036 276.24884033 209.13580322 C276.246091 210.14825104 276.24334167 211.16069885 276.24050903 212.2038269 C276.24327441 213.52844342 276.24327441 213.52844342 276.24609566 214.87981987 C276 217 276 217 274 219 C271.86129761 219.24050903 271.86129761 219.24050903 269.18310547 219.22705078 C268.18221893 219.22689972 267.1813324 219.22674866 266.15011597 219.22659302 C264.52506638 219.21110916 264.52506638 219.21110916 262.8671875 219.1953125 C261.76021515 219.1924826 260.6532428 219.18965271 259.51272583 219.18673706 C255.96670863 219.17551519 252.42094125 219.15040691 248.875 219.125 C246.47526406 219.1149728 244.07552417 219.1058465 241.67578125 219.09765625 C235.78376849 219.07556932 229.89190209 219.04207207 224 219 C222.71670841 215.15012524 222.86556132 211.52619165 222.87974548 207.51496887 C222.87846146 206.2034787 222.87846146 206.2034787 222.87715149 204.86549377 C222.87549126 201.9152729 222.88102813 198.9651083 222.88647461 196.01489258 C222.88678081 193.87189327 222.88664768 191.72889385 222.88610935 189.58589458 C222.88588311 183.83455504 222.89168908 178.0832362 222.89871979 172.33190155 C222.90440458 166.93981357 222.90468236 161.54773068 222.90539551 156.15563965 C222.91064786 140.37459034 222.92460895 124.59354491 222.9375 108.8125 C222.958125 73.564375 222.97875 38.31625 223 2 C149.41 2 75.82 2 0 2 C0 1.34 0 0.68 0 0 Z " fill="#000000" transform="translate(527,272)"/>
<path d="M0 0 C90.42 0 180.84 0 274 0 C274 0.33 274 0.66 274 1 C271.03 1.33 268.06 1.66 265 2 C265 2.33 265 2.66 265 3 C178.21 3 91.42 3 2 3 C1.67 18.51 1.34 34.02 1 50 C0.67 50 0.34 50 0 50 C0 33.5 0 17 0 0 Z " fill="#EDEDED" transform="translate(527,222)"/>
<path d="M0 0 C7.24486551 -0.02526739 14.48971974 -0.0428318 21.73461914 -0.05493164 C24.20142033 -0.05997356 26.66821852 -0.06680691 29.13500977 -0.07543945 C32.67204529 -0.08751125 36.20904145 -0.09322956 39.74609375 -0.09765625 C40.85649521 -0.10281754 41.96689667 -0.10797882 43.11094666 -0.11329651 C44.64242088 -0.11340981 44.64242088 -0.11340981 46.20483398 -0.11352539 C47.10862289 -0.115746 48.0124118 -0.11796661 48.94358826 -0.12025452 C51 0 51 0 52 1 C52.1102803 3.74342202 52.15496811 6.46220941 52.15821838 9.20655823 C52.16562535 10.51253484 52.16562535 10.51253484 52.17318195 11.84489483 C52.18863658 14.78534777 52.196939 17.72577876 52.20532227 20.66625977 C52.21489454 22.76490474 52.22490423 24.86354777 52.23532104 26.96218872 C52.2624467 32.67887689 52.28341465 38.39557338 52.30332303 44.11229062 C52.32513551 50.07942819 52.35254729 56.04653989 52.37937927 62.01365662 C52.42937045 73.32192755 52.47428536 84.63021278 52.51740164 95.93851179 C52.56671923 108.80892388 52.62165761 121.67931002 52.67708123 134.54969704 C52.79099987 161.03310717 52.89781727 187.51654217 53 214 C52.01 214 51.02 214 50 214 C50 143.71 50 73.42 50 1 C33.5 1 17 1 0 1 C0 0.67 0 0.34 0 0 Z " fill="#181818" transform="translate(222,522)"/>
<path d="M0 0 C1.11696762 0.00222061 2.23393524 0.00444122 3.38475037 0.00672913 C4.64598221 0.00680466 5.90721405 0.00688019 7.20666504 0.00695801 C8.59341979 0.01206542 9.98017414 0.01728142 11.3669281 0.02259827 C12.77797394 0.0244625 14.18902042 0.02588638 15.60006714 0.02688599 C19.3204272 0.03071072 23.04074845 0.04054062 26.76109314 0.05158997 C30.55482966 0.06180504 34.34857243 0.06638381 38.14231873 0.07142639 C45.59090416 0.08216294 53.03945758 0.09923882 60.48802185 0.12025452 C60.48802185 0.45025452 60.48802185 0.78025452 60.48802185 1.12025452 C40.02802185 1.12025452 19.56802185 1.12025452 -1.51197815 1.12025452 C-1.51197815 20.92025452 -1.51197815 40.72025452 -1.51197815 61.12025452 C20.26802185 61.12025452 42.04802185 61.12025452 64.48802185 61.12025452 C64.48802185 61.78025452 64.48802185 62.44025452 64.48802185 63.12025452 C42.04802185 63.12025452 19.60802185 63.12025452 -3.51197815 63.12025452 C-3.53260315 52.91087952 -3.55322815 42.70150452 -3.57447815 32.18275452 C-3.58358215 28.95502258 -3.59268616 25.72729065 -3.60206604 22.40174866 C-3.60498491 19.86130312 -3.60753354 17.32085711 -3.6096344 14.78041077 C-3.61224777 14.11617599 -3.61486115 13.45194122 -3.61755371 12.76757812 C-3.62483503 10.82012594 -3.62531655 8.87265194 -3.62550354 6.92518616 C-3.62772415 5.82598343 -3.62994476 4.7267807 -3.63223267 3.5942688 C-3.46903591 0.23679743 -3.36059605 0.16087992 0 0 Z M64.48802185 2.12025452 C64.81802185 2.12025452 65.14802185 2.12025452 65.48802185 2.12025452 C65.48802185 21.59025452 65.48802185 41.06025452 65.48802185 61.12025452 C65.15802185 61.12025452 64.82802185 61.12025452 64.48802185 61.12025452 C64.48802185 41.65025452 64.48802185 22.18025452 64.48802185 2.12025452 Z " fill="#000000" transform="translate(335.51197814941406,312.87974548339844)"/>
<path d="M0 0 C1.32 0.33 2.64 0.66 4 1 C3.34 1 2.68 1 2 1 C2 19.48 2 37.96 2 57 C22.13 57 42.26 57 63 57 C63.33 56.01 63.66 55.02 64 54 C64.33 54 64.66 54 65 54 C65 55.65 65 57.3 65 59 C43.55 59 22.1 59 0 59 C0 39.53 0 20.06 0 0 Z " fill="#FDFDFD" transform="translate(334,315)"/>
<path d="M0 0 C0.33 0 0.66 0 1 0 C1.01030746 1.08168961 1.02061493 2.16337921 1.03123474 3.27784729 C1.12949046 13.53037699 1.2322677 23.782853 1.33933926 34.03529453 C1.39422843 39.30467923 1.44758922 44.5740697 1.49731445 49.84350586 C1.54546564 54.93992779 1.59781786 60.03629163 1.65294075 65.13264275 C1.67313716 67.06561755 1.69188382 68.99860813 1.70907402 70.93161201 C1.73363037 73.66353102 1.76360163 76.3953456 1.79467773 79.12719727 C1.8004332 79.90548386 1.80618866 80.68377045 1.81211853 81.48564148 C1.90820207 89.0385788 2.49477279 96.4215919 3 104 C13.89 93.11 24.78 82.22 36 71 C36 74 36 74 34.67799377 75.6894989 C34.05923874 76.30460831 33.4404837 76.91971771 32.80297852 77.5534668 C32.10547989 78.25396652 31.40798126 78.95446625 30.68934631 79.67619324 C29.54567848 80.80134087 29.54567848 80.80134087 28.37890625 81.94921875 C27.60441635 82.72183548 26.82992645 83.49445221 26.03196716 84.29048157 C24.39190821 85.9238108 22.74825196 87.55353457 21.10131836 89.17993164 C18.56950416 91.68058206 16.04852516 94.19175486 13.52929688 96.70507812 C11.9381219 98.28708408 10.34634531 99.86848522 8.75390625 101.44921875 C7.99348526 102.20538986 7.23306427 102.96156097 6.44960022 103.74064636 C5.74894943 104.43168961 5.04829865 105.12273285 4.32641602 105.8347168 C3.70686539 106.44743942 3.08731476 107.06016205 2.44898987 107.69145203 C1 109 1 109 0 109 C0 73.03 0 37.06 0 0 Z " fill="#010101" transform="translate(496,352)"/>
<path d="M0 0 C0.66 0.33 1.32 0.66 2 1 C-0.88330063 4.6521808 -3.75602859 7.8238023 -7.3125 10.8125 C-10.35859986 13.4135935 -13.20015563 16.13186674 -16 19 C-17.43615466 20.43884409 -18.87373848 21.87626263 -20.3125 23.3125 C-21.00988281 24.00988281 -21.70726562 24.70726562 -22.42578125 25.42578125 C-23.20501953 26.20501953 -23.20501953 26.20501953 -24 27 C-24 24 -24 24 -21.796875 21.45629883 C-20.78891569 20.44881485 -19.77269078 19.44955807 -18.75 18.45703125 C-18.21729492 17.92857101 -17.68458984 17.40011078 -17.13574219 16.8556366 C-15.43072971 15.16743265 -13.71558873 13.48994855 -12 11.8125 C-10.84306822 10.67061222 -9.68680935 9.52804224 -8.53125 8.38476562 C-5.69525089 5.58186459 -2.85012324 2.7885348 0 0 Z " fill="#E3E3E3" transform="translate(620,335)"/>
<path d="M0 0 C-1.65863505 4.32504836 -4.871041 7.09418825 -8.125 10.25 C-8.68832031 10.80429687 -9.25164063 11.35859375 -9.83203125 11.9296875 C-11.21686028 13.29104485 -12.60783204 14.64614859 -14 16 C-14.66 15.67 -15.32 15.34 -16 15 C-15.67 14.01 -15.34 13.02 -15 12 C-14.34 12 -13.68 12 -13 12 C-13 11.34 -13 10.68 -13 10 C-12.34 10 -11.68 10 -11 10 C-10.90460937 9.40703125 -10.80921875 8.8140625 -10.7109375 8.203125 C-9.84697384 5.52578707 -8.76825171 4.54056472 -6.625 2.75 C-6.01914062 2.22921875 -5.41328125 1.7084375 -4.7890625 1.171875 C-3 0 -3 0 0 0 Z " fill="#131313" transform="translate(548,408)"/>
<path d="M0 0 C0.66 1.32 1.32 2.64 2 4 C1.01 3.67 0.02 3.34 -1 3 C-3.80160502 2.8460737 -6.58298425 2.74261955 -9.38671875 2.68359375 C-10.20372757 2.66281265 -11.02073639 2.64203156 -11.86250305 2.62062073 C-14.47075034 2.55526921 -17.07909775 2.49630727 -19.6875 2.4375 C-21.45639054 2.39430108 -23.22527097 2.35068635 -24.99414062 2.30664062 C-29.32932463 2.19960257 -33.66460929 2.09829456 -38 2 C-38 1.67 -38 1.34 -38 1 C-25.46 0.67 -12.92 0.34 0 0 Z " fill="#EDEDED" transform="translate(494,782)"/>
<path d="M0 0 C4.33333333 4.33333333 8.66666667 8.66666667 13 13 C12.01 13.66 11.02 14.32 10 15 C7.5 12.6875 7.5 12.6875 5 10 C5 9.01 5 8.02 5 7 C4.34 7 3.68 7 3 7 C0.70351351 4.4385343 0 3.52032428 0 0 Z " fill="#0F0F0F" transform="translate(536,571)"/>
<path d="M0 0 C0 0.33 0 0.66 0 1 C-0.98742187 1.04898437 -1.97484375 1.09796875 -2.9921875 1.1484375 C-4.27351562 1.22320312 -5.55484375 1.29796875 -6.875 1.375 C-8.78925781 1.47941406 -8.78925781 1.47941406 -10.7421875 1.5859375 C-14.08061699 1.67241106 -14.08061699 1.67241106 -16 4 C-17.97935624 5.69219575 -19.99220782 7.34138907 -22 9 C-22.66 8.67 -23.32 8.34 -24 8 C-17.52676162 -1.53950919 -10.48206832 -0.91590888 0 0 Z " fill="#454545" transform="translate(707,357)"/>
<path d="M0 0 C3.36179774 1.44077046 5.59156268 3.24750021 8 6 C8 6.66 8 7.32 8 8 C8.66 8.33 9.32 8.66 10 9 C6.47190093 9 5.53184488 8.35723489 3 6 C3 5.01 3 4.02 3 3 C2.01 2.67 1.02 2.34 0 2 C0 1.34 0 0.68 0 0 Z " fill="#1E1E1E" transform="translate(600,640)"/>
<path d="M0 0 C0.99 0.33 1.98 0.66 3 1 C1.61990379 4.33523252 0.15049348 6.18607951 -3 8 C-3.99 7.67 -4.98 7.34 -6 7 C-4.02 4.69 -2.04 2.38 0 0 Z " fill="#111111" transform="translate(682,366)"/>
<path d="M0 0 C3.16115776 1.36983503 3.9927092 1.9890638 6 5 C5.01 5.495 5.01 5.495 4 6 C2.66666667 4.66666667 1.33333333 3.33333333 0 2 C-0.66 3.32 -1.32 4.64 -2 6 C-2.99 5.34 -3.98 4.68 -5 4 C-3.35 2.68 -1.7 1.36 0 0 Z " fill="#101010" transform="translate(508,542)"/>
<path d="M0 0 C-1.39332574 3.36720387 -2.9789286 4.9859524 -6 7 C-6 3 -6 3 -4.6875 1.25 C-3 0 -3 0 0 0 Z " fill="#1F1F1F" transform="translate(548,408)"/>
<path d="M0 0 C0 4.38968456 -2.12805101 5.76905739 -5 9 C-5.99 8.67 -6.98 8.34 -8 8 C-5.36 5.36 -2.72 2.72 0 0 Z " fill="#212121" transform="translate(573,474)"/>
<path d="M0 0 C0.33 1.32 0.66 2.64 1 4 C-0.65 5.32 -2.3 6.64 -4 8 C-4.66 7.34 -5.32 6.68 -6 6 C-4 4 -2 2 0 0 Z " fill="#1F1F1F" transform="translate(594,358)"/>
<path d="M0 0 C1.98 0.66 3.96 1.32 6 2 C4.1875 3.5625 4.1875 3.5625 2 5 C1.01 4.67 0.02 4.34 -1 4 C-0.67 2.68 -0.34 1.36 0 0 Z " fill="#131313" transform="translate(547,586)"/>
<path d="M0 0 C0.66 0.33 1.32 0.66 2 1 C0.35 2.65 -1.3 4.3 -3 6 C-3.99 5.01 -4.98 4.02 -6 3 C-4.03533587 1.93224776 -2.03144641 0.93446535 0 0 Z " fill="#131313" transform="translate(551,403)"/>
</svg>
