<?xml version="1.0" encoding="UTF-8"?>
<svg version="1.1" xmlns="http://www.w3.org/2000/svg" width="1024" height="1024">
<path d="M0 0 C337.92 0 675.84 0 1024 0 C1024 337.92 1024 675.84 1024 1024 C686.08 1024 348.16 1024 0 1024 C0 686.08 0 348.16 0 0 Z " fill="#09090A" transform="translate(0,0)"/>
<path d="M0 0 C17.82 0 35.64 0 54 0 C54.66 48.18 55.32 96.36 56 146 C68.6534375 133.3775 68.6534375 133.3775 81.5625 120.5 C84.2135376 117.85806641 86.8645752 115.21613281 89.59594727 112.49414062 C91.99916725 110.09426797 91.99916725 110.09426797 94.40171814 107.69372559 C95.46048368 106.63648149 96.52023169 105.58022066 97.58079529 104.52478027 C102.99596315 99.13443453 108.32846706 93.73718046 113.29747009 87.92614746 C116.74480096 84.02602943 120.48958705 80.41034662 124.1875 76.75 C125.47950317 75.46367676 125.47950317 75.46367676 126.79760742 74.15136719 C130.45013983 70.51505061 134.10863635 66.88475629 137.76660156 63.25390625 C140.45065156 60.58802403 143.13163241 57.9190819 145.8125 55.25 C146.62936279 54.44143555 147.44622559 53.63287109 148.2878418 52.79980469 C155.10075865 46.01582491 161.26668304 39.09077815 166.90135193 31.30050659 C176.71327695 18.06117049 188.98221977 1.71124022 206.08891773 -1.45064163 C225.77781985 -4.31598508 246.37585586 -2.0010308 266 0 C266 14.19 266 28.38 266 43 C258.08 43.495 258.08 43.495 250 44 C245.01396145 47.43301705 245.01396145 47.43301705 240.8000946 51.3447113 C240.05863976 52.1260484 240.05863976 52.1260484 239.30220604 52.92317009 C238.79126711 53.46302103 238.28032818 54.00287197 237.75390625 54.55908203 C236.63477552 55.68409447 235.51230017 56.80578798 234.38679504 57.92442322 C231.36319819 60.94798669 228.38783206 64.01520234 225.41930389 67.0927186 C222.29166798 70.31853931 219.12041624 73.50090798 215.95361328 76.6882019 C209.96566179 82.72779075 204.01651287 88.80410887 198.0810318 94.89522445 C190.68643821 102.48012698 183.24423007 110.01777622 175.80078125 117.5546875 C173.18700414 120.2018922 170.57361415 122.84947814 167.96069336 125.49752808 C167.32711946 126.13961995 166.69354555 126.78171182 166.04077244 127.44326103 C161.69336915 131.85178412 157.35860163 136.27247565 153.02954102 140.69900513 C151.86493154 141.88850028 150.700275 143.07794935 149.53556824 144.26734924 C147.39246995 146.45590676 145.25300364 148.64792498 143.11567688 150.84211731 C138.43854339 155.62742285 133.72053302 160.28817328 128.61488342 164.61933041 C126.31811108 166.58299149 124.19100744 168.69655501 122.0625 170.83984375 C121.23105469 171.67451172 120.39960937 172.50917969 119.54296875 173.36914062 C118.70378906 174.21669922 117.86460937 175.06425781 117 175.9375 C115.69482422 177.24944336 115.69482422 177.24944336 114.36328125 178.58789062 C112.23986451 180.72297449 110.11883622 182.86037205 108 185 C112.41938584 190.35746302 117.14839581 195.10757959 122.25 199.8125 C127.82664828 205.00170665 133.32261837 210.22462573 138.62890625 215.69140625 C140.52858482 217.54101092 142.44919372 219.24851116 144.46484375 220.96484375 C151.24180508 226.84567796 157.42443634 233.3701193 163.72753906 239.74804688 C165.42037988 241.45917307 167.11637537 243.1671297 168.8125 244.875 C169.31483154 245.38562988 169.81716309 245.89625977 170.3347168 246.42236328 C174.38037497 250.49506727 178.65851479 254.24702653 183 258 C194.73159692 268.14916093 206.23436229 278.52240775 217.5 289.1875 C218.29653488 289.94091171 219.09306976 290.69432343 219.91374207 291.4705658 C254.26226306 324.16684579 254.26226306 324.16684579 255.73730469 345.7709198 C255.81778723 356.73988034 254.06876869 367.49398014 251 378 C214.52722455 382.10634597 214.52722455 382.10634597 203.94256592 374.4119873 C196.9209686 368.53906039 191.4293615 361.31342174 186 354 C181.77449377 348.88322614 177.24333185 344.13461857 172.5 339.5 C168.4646327 335.51478981 164.60576993 331.48480851 160.9375 327.15625 C157.69702509 323.54991501 154.20886361 320.1896575 150.76220703 316.78173828 C147.27597185 313.31965018 143.98352567 309.77161983 140.8046875 306.0234375 C138.02352325 302.90516244 135.02614322 300.00554402 132.05297852 297.07250977 C128.75924885 293.80603386 125.68503056 290.42088307 122.67578125 286.89453125 C120.23467461 284.134772 117.597094 281.58789024 114.97265625 279.00390625 C112.42662171 276.41753849 110.07978443 273.6846472 107.71484375 270.93359375 C106.03995701 269.04505403 104.30052413 267.26844352 102.5 265.5 C100.20673964 263.24202057 98.03571972 260.94003496 95.9375 258.5 C92.43888308 254.44065666 88.78991521 250.53343439 85.125 246.625 C79.67646358 240.81327605 74.29456717 234.95288637 69 229 C64.05889299 231.39243734 59.56385137 233.72202186 56 238 C54.68691637 242.54469519 54.80217019 246.9414669 54.88647461 251.64624023 C54.87914246 253.02659135 54.86785714 254.40692625 54.85293579 255.78721619 C54.82372161 259.51886663 54.84955138 263.24831563 54.88552547 266.9798305 C54.91372859 270.88500927 54.89095736 274.789889 54.87367249 278.69508362 C54.84867743 286.08293613 54.86929753 293.46992368 54.90644604 300.85769659 C54.94652161 309.27132625 54.93553396 317.68464922 54.92032993 326.09833229 C54.89020628 343.39928956 54.93071025 360.69911184 55 378 C36.85 378 18.7 378 0 378 C0 253.26 0 128.52 0 0 Z " fill="#F7F7F7" transform="translate(441,314)"/>
<path d="M0 0 C90.42 0 180.84 0 274 0 C274 88.11 274 176.22 274 267 C257.83 267 241.66 267 225 267 C225 195.39 225 123.78 225 50 C150.75 50 76.5 50 0 50 C0 33.5 0 17 0 0 Z " fill="#F7F7F7" transform="translate(527,222)"/>
<path d="M0 0 C89.76 0 179.52 0 272 0 C272 16.5 272 33 272 50 C198.41 50 124.82 50 49 50 C49 121.61 49 193.22 49 267 C32.83 267 16.66 267 0 267 C0 178.89 0 90.78 0 0 Z " fill="#F7F7F7" transform="translate(223,222)"/>
<path d="M0 0 C16.17 0 32.34 0 49 0 C49 86.46 49 172.92 49 262 C-41.42 262 -131.84 262 -225 262 C-225 245.5 -225 229 -225 212 C-150.75 212 -76.5 212 0 212 C0 142.04 0 72.08 0 0 Z " fill="#F7F7F7" transform="translate(752,524)"/>
<path d="M0 0 C16.17 0 32.34 0 49 0 C49 69.96 49 139.92 49 212 C122.92 212 196.84 212 273 212 C273 228.5 273 245 273 262 C182.91 262 92.82 262 0 262 C0 175.54 0 89.08 0 0 Z " fill="#F8F8F8" transform="translate(223,524)"/>
<path d="M0 0 C21.45 0 42.9 0 65 0 C65 94.05 65 188.1 65 285 C43.55 285 22.1 285 0 285 C0 190.95 0 96.9 0 0 Z " fill="#F8F8F8" transform="translate(334,407)"/>
<path d="M0 0 C21.45 0 42.9 0 65 0 C65 19.8 65 39.6 65 60 C43.55 60 22.1 60 0 60 C0 40.2 0 20.4 0 0 Z " fill="#F6F6F6" transform="translate(334,314)"/>
<path d="M0 0 C1.1243519 0.00113916 1.1243519 0.00113916 2.27141798 0.00230134 C3.13579878 -0.00168076 4.00017958 -0.00566286 4.89075375 -0.00976562 C6.32361157 -0.0010271 6.32361157 -0.0010271 7.78541601 0.00788796 C8.79576229 0.00617911 9.80610857 0.00447026 10.84707141 0.00270963 C14.2543552 -0.00060149 17.66144484 0.01044508 21.06871068 0.02134621 C23.50247223 0.02190998 25.93623412 0.02159445 28.36999547 0.0204612 C33.62091125 0.02000482 38.8717826 0.02570116 44.12268484 0.03693688 C51.71466089 0.05317141 59.3066129 0.05839778 66.89860444 0.06091286 C79.21524851 0.06529319 91.53186613 0.07861143 103.84849584 0.09751809 C115.81496585 0.11586816 127.78142867 0.13002893 139.7479099 0.13853371 C140.48517236 0.13905916 141.22243483 0.13958461 141.98203857 0.14012598 C145.68056286 0.142736 149.37908719 0.14526343 153.07761157 0.14774978 C183.77437057 0.16849279 214.47109751 0.20387586 245.16783178 0.24839699 C244.83783178 0.90839699 244.50783178 1.56839699 244.16783178 2.24839699 C162.98783178 2.24839699 81.80783178 2.24839699 -1.83216822 2.24839699 C-1.83216822 18.74839699 -1.83216822 35.24839699 -1.83216822 52.24839699 C72.41783178 52.24839699 146.66783178 52.24839699 223.16783178 52.24839699 C223.16783178 123.85839699 223.16783178 195.46839699 223.16783178 269.24839699 C239.33783178 269.24839699 255.50783178 269.24839699 272.16783178 269.24839699 C272.16783178 181.79839699 272.16783178 94.34839699 272.16783178 4.24839699 C272.49783178 4.24839699 272.82783178 4.24839699 273.16783178 4.24839699 C274.26674838 147.77793677 274.26674838 147.77793677 274.34507787 214.13420022 C274.35096107 219.08502612 274.36142066 224.03580893 274.37583959 228.98661721 C274.39218424 234.74391981 274.39876417 240.50114485 274.39702833 246.2584697 C274.39786726 248.34604274 274.40202255 250.43361744 274.40971982 252.52117646 C274.41938413 255.33179271 274.41679221 258.14212297 274.4107517 260.9527427 C274.41637372 261.77465285 274.42199575 262.596563 274.42778814 263.44337952 C274.39630467 269.0199241 274.39630467 269.0199241 272.16783178 271.24839699 C270.08055151 271.5090934 270.08055151 271.5090934 267.4744724 271.5230552 C266.500062 271.53258721 265.5256516 271.54211922 264.52171361 271.55194008 C263.46649511 271.55102868 262.4112766 271.55011727 261.32408178 271.54917824 C260.24404882 271.55346337 259.16401586 271.55774849 258.05125463 271.56216347 C255.76476275 271.56791377 253.47825257 271.56840191 251.19175756 271.56407082 C247.6821649 271.5609099 244.17341391 271.58436541 240.66392553 271.60972512 C238.44647868 271.61199783 236.22902955 271.61270174 234.01158178 271.61167824 C232.95636327 271.62088799 231.90114477 271.63009774 230.81394994 271.63958657 C229.35233434 271.63024338 229.35233434 271.63024338 227.86119115 271.62071145 C227.00118505 271.62134087 226.14117895 271.6219703 225.25511205 271.62261879 C224.56630956 271.4991256 223.87750707 271.37563241 223.16783178 271.24839699 C220.5960952 267.39079213 220.89570945 264.23442432 220.92732275 259.76336586 C220.9256139 258.88692239 220.92390505 258.01047891 220.92214441 257.10747653 C220.91884004 254.15933205 220.92986881 251.21141322 220.940781 248.26328957 C220.94134491 246.15449955 220.94102895 244.04570913 220.93989599 241.93691933 C220.93932068 236.20170851 220.95110375 230.46658085 220.9650439 224.7313894 C220.97752167 218.74159471 220.97871942 212.75179825 220.98109472 206.76199257 C220.98731819 195.41479811 221.00374072 184.06764206 221.0237937 172.72046453 C221.04612575 159.80408016 221.05713934 146.88769398 221.06718457 133.97129512 C221.0881062 107.39697443 221.123299 80.82268786 221.16783178 54.24839699 C220.01947127 54.24931879 218.87111076 54.25024058 217.68795145 54.2511903 C189.78959472 54.27335639 161.89123912 54.28980682 133.99287546 54.30020916 C131.31087847 54.30122906 128.62888149 54.30227038 125.94688451 54.30332863 C125.28023973 54.30359094 124.61359495 54.30385325 123.9267488 54.30412351 C113.11862259 54.30848022 102.31050166 54.31636778 91.50237859 54.32554979 C80.42034271 54.3348863 69.33830899 54.3403777 58.25626928 54.34248549 C52.02825844 54.34379301 45.80025963 54.34688149 39.57225263 54.35412705 C33.71765103 54.36088341 27.86306648 54.36301474 22.00846136 54.36150467 C19.85289134 54.36178118 17.69732079 54.36378856 15.54175413 54.36760247 C12.61249092 54.37253372 9.68329321 54.37139739 6.75402868 54.36865151 C5.45687574 54.37302077 5.45687574 54.37302077 4.13351768 54.3774783 C-1.71804701 54.3625182 -1.71804701 54.3625182 -2.83216822 53.24839699 C-2.9918057 51.2780795 -3.08379002 49.30223405 -3.14857447 47.32652199 C-3.1907107 46.08225441 -3.23284693 44.83798684 -3.27626002 43.55601418 C-3.31627343 42.2034911 -3.35573202 40.85095151 -3.39466822 39.49839699 C-3.41518244 38.82377419 -3.43569666 38.14915139 -3.45683253 37.45408547 C-3.7236222 28.63730954 -3.94944944 19.81913794 -4.01966822 10.99839699 C-4.03263941 10.1311802 -4.0456106 9.2639634 -4.05897486 8.37046731 C-4.0621069 6.32837965 -3.95795747 4.28660917 -3.83216822 2.24839699 C-1.83216822 0.24839699 -1.83216822 0.24839699 0 0 Z " fill="#000101" transform="translate(528.8321682214737,219.7516030073166)"/>
<path d="M0 0 C1.31476318 -0.00630432 2.62952637 -0.01260864 3.98413086 -0.019104 C5.42561985 -0.01552433 6.86710762 -0.0114224 8.30859375 -0.00683594 C9.78068099 -0.00818261 11.2527678 -0.01012317 12.72485352 -0.01263428 C15.81172923 -0.01558543 18.89848928 -0.01128825 21.98535156 -0.00195312 C25.94681504 0.0094415 29.90800753 0.00288197 33.86946106 -0.00909805 C36.90972952 -0.01631694 39.94993348 -0.01402861 42.99020386 -0.00884247 C44.45108065 -0.00750605 45.91196325 -0.00915344 47.37283325 -0.01380157 C49.4126169 -0.018867 51.45242101 -0.00978073 53.4921875 0 C55.23520142 0.00238678 55.23520142 0.00238678 57.01342773 0.00482178 C59.74609375 0.25878906 59.74609375 0.25878906 61.74609375 2.25878906 C61.99449074 4.34102643 61.99449074 4.34102643 61.99218941 6.97145271 C61.9961715 7.97168594 62.0001536 8.97191918 62.00425637 10.00246251 C61.99551784 11.6629408 61.99551784 11.6629408 61.98660278 13.35696411 C61.98831163 14.52656894 61.99002048 15.69617376 61.99178112 16.90122116 C61.99451444 20.15761132 61.98823115 23.41384386 61.97822499 26.67021537 C61.96961365 30.17805217 61.972509 33.68588119 61.97402954 37.19372559 C61.97507987 43.27459596 61.96878791 49.35542351 61.95755386 55.43628311 C61.94132174 64.22825329 61.93609321 73.02020269 61.93357788 81.81218623 C61.92919718 96.07548616 61.91587791 110.33876325 61.89697266 124.60205078 C61.87862356 138.46012253 61.86446231 152.31818809 61.85595703 166.17626953 C61.85543158 167.03002482 61.85490614 167.88378011 61.85436477 168.76340677 C61.85175475 173.04630984 61.84922732 177.32921295 61.84674096 181.6121161 C61.82599677 217.16102337 61.79076105 252.70990411 61.74609375 288.25878906 C61.08609375 287.92878906 60.42609375 287.59878906 59.74609375 287.25878906 C59.41609375 287.91878906 59.08609375 288.57878906 58.74609375 289.25878906 C50.3057018 289.3050743 41.86536264 289.34063875 33.42487526 289.36241341 C29.50586091 289.37286271 25.58693322 289.38704268 21.66796875 289.40966797 C17.88786336 289.43135568 14.10784147 289.44334904 10.32767868 289.44854355 C8.88353536 289.45224666 7.43939675 289.45947766 5.99528885 289.47024918 C3.97688481 289.48470923 1.95839723 289.48560551 -0.06005859 289.48583984 C-1.78547379 289.49250168 -1.78547379 289.49250168 -3.54574585 289.4992981 C-6.25390625 289.25878906 -6.25390625 289.25878906 -8.25390625 287.25878906 C-8.50460458 285.18526506 -8.50460458 285.18526506 -8.50558853 282.56732941 C-8.51080403 281.57181297 -8.51601952 280.57629653 -8.52139306 279.55061293 C-8.51693162 278.44888258 -8.51247017 277.34715224 -8.50787354 276.21203613 C-8.51099352 275.04792599 -8.5141135 273.88381585 -8.51732802 272.68442965 C-8.52394713 269.44331032 -8.52153501 266.20233958 -8.51535559 262.96122384 C-8.51084634 259.46970067 -8.51780723 255.97819819 -8.52331543 252.48667908 C-8.53222747 245.64288515 -8.53027939 238.79913499 -8.52449015 231.95533931 C-8.51998076 226.39523577 -8.51935761 220.83514452 -8.52153778 215.27503967 C-8.52184425 214.48491015 -8.52215071 213.69478062 -8.52246647 212.88070777 C-8.52310589 211.2757773 -8.52375432 209.67084683 -8.52441165 208.06591636 C-8.53012025 193.00221817 -8.52354876 177.93854429 -8.51281092 162.87485009 C-8.50387492 149.93820169 -8.50542682 137.00158917 -8.51464844 124.06494141 C-8.52534173 109.05662746 -8.52957087 94.04833483 -8.52342391 79.0400176 C-8.52278678 77.44085789 -8.52215804 75.84169817 -8.52153778 74.24253845 C-8.52122923 73.45563843 -8.52092068 72.6687384 -8.52060278 71.85799292 C-8.51887301 66.30197564 -8.52179699 60.74597185 -8.52649689 55.18995667 C-8.53209529 48.4227455 -8.53061129 41.65558075 -8.5199354 34.88837492 C-8.51466459 31.43298259 -8.51264575 27.97766776 -8.5192337 24.52227592 C-8.52465676 20.783286 -8.51789452 17.0445176 -8.50787354 13.30554199 C-8.51233498 12.20381165 -8.51679642 11.10208131 -8.52139306 9.9669652 C-8.51617757 8.97144876 -8.51096207 7.97593232 -8.50558853 6.95024872 C-8.50526383 6.08632995 -8.50493912 5.22241118 -8.50460458 4.33231306 C-7.89728169 -0.69085002 -4.12810088 0.00565278 0 0 Z M-6.25390625 2.25878906 C-6.25390625 96.30878906 -6.25390625 190.35878906 -6.25390625 287.25878906 C15.19609375 287.25878906 36.64609375 287.25878906 58.74609375 287.25878906 C58.74609375 193.20878906 58.74609375 99.15878906 58.74609375 2.25878906 C37.29609375 2.25878906 15.84609375 2.25878906 -6.25390625 2.25878906 Z " fill="#0F0F0F" transform="translate(340.25390625,404.7412109375)"/>
<path d="M0 0 C0.33 0 0.66 0 1 0 C1 70.29 1 140.58 1 213 C-73.25 213 -147.5 213 -224 213 C-224 229.5 -224 246 -224 263 C-133.91 263 -43.82 263 49 263 C49 263.33 49 263.66 49 264 C-41.42 264 -131.84 264 -225 264 C-225 212 -225 212 -224 211 C-221.13005352 210.90206102 -218.28416945 210.87007709 -215.4138031 210.87974548 C-214.5023165 210.87889106 -213.5908299 210.87803663 -212.65172249 210.87715632 C-209.57305266 210.87549872 -206.49443636 210.88102744 -203.41577148 210.88647461 C-201.2186076 210.88675645 -199.02144362 210.88659882 -196.82427979 210.8860321 C-190.83898451 210.88574399 -184.85370909 210.89164287 -178.86841846 210.89860606 C-172.6210253 210.90483739 -166.37363174 210.90544322 -160.12623596 210.90663147 C-149.63371458 210.90939116 -139.14119937 210.91564666 -128.64868164 210.92456055 C-117.83943722 210.93373399 -107.03019479 210.94081515 -96.22094727 210.94506836 C-95.22219133 210.94546244 -95.22219133 210.94546244 -94.20325851 210.94586449 C-90.86308126 210.94716949 -87.52290401 210.94843096 -84.18272674 210.94967639 C-56.45514606 210.96014227 -28.72757354 210.97774298 -1 211 C-1.00138269 209.37795702 -1.00138269 209.37795702 -1.00279331 207.72314548 C-1.02495969 181.45210312 -1.04140996 155.18106197 -1.05181217 128.91001225 C-1.05697587 116.20571117 -1.06401997 103.50141626 -1.07543945 90.79711914 C-1.08538404 79.72841575 -1.09185289 68.65971682 -1.09408849 57.59100908 C-1.09539599 51.72629172 -1.09848425 45.86158713 -1.10573006 39.99687386 C-1.11248673 34.48371472 -1.11461769 28.97057369 -1.11310768 23.45741081 C-1.11338417 21.42762021 -1.11539138 19.39782903 -1.11920547 17.36804199 C-1.12413721 14.60956083 -1.12300022 11.8511492 -1.12025452 9.09266663 C-1.12462378 7.87138718 -1.12462378 7.87138718 -1.12908131 6.62543541 C-1.11412121 1.11412121 -1.11412121 1.11412121 0 0 Z " fill="#000000" transform="translate(751,523)"/>
<path d="M0 0 C90.42 0 180.84 0 274 0 C273.34 0.66 272.68 1.32 272 2 C271.806276 5.03359992 271.7396942 7.97563741 271.75949097 11.01016235 C271.75778212 11.9551718 271.75607327 12.90018124 271.75431263 13.87382734 C271.75100215 17.06000351 271.76204702 20.24597194 271.77294922 23.43212891 C271.773513 25.70825699 271.77319743 27.98438544 271.77206421 30.26051331 C271.77148839 36.45650986 271.78327971 42.65242959 271.79721212 48.84840822 C271.80968138 55.31734106 271.81088697 61.7862755 271.81326294 68.25521851 C271.81878075 79.11840306 271.83128866 89.98155599 271.84912109 100.84472656 C271.86747167 112.03515481 271.88163219 123.22557538 271.89013672 134.41601562 C271.89066217 135.10548616 271.89118761 135.79495669 271.89172898 136.50532027 C271.89433901 139.96409941 271.89686643 143.42287861 271.89935279 146.88165784 C271.9200952 175.58779102 271.95547777 204.29389441 272 233 C271.67 233 271.34 233 271 233 C271 157.1 271 81.2 271 3 C182.23 3 93.46 3 2 3 C1.67 18.51 1.34 34.02 1 50 C0.67 50 0.34 50 0 50 C0 33.5 0 17 0 0 Z " fill="#F0F1F1" transform="translate(527,222)"/>
<path d="M0 0 C0.33 0 0.66 0 1 0 C1 15.51 1 31.02 1 47 C34.99 47 68.98 47 104 47 C104 47.33 104 47.66 104 48 C188.15 48.495 188.15 48.495 274 49 C274 49.33 274 49.66 274 50 C183.58 50 93.16 50 0 50 C0 33.5 0 17 0 0 Z " fill="#D2D3D3" transform="translate(527,736)"/>
<path d="M0 0 C0.33 0 0.66 0 1 0 C1 16.5 1 33 1 50 C-89.09 50 -179.18 50 -272 50 C-272 49.67 -272 49.34 -272 49 C-213.92 48.67 -155.84 48.34 -96 48 C-96 47.67 -96 47.34 -96 47 C-64.32 47 -32.64 47 0 47 C0 31.49 0 15.98 0 0 Z " fill="#D0D1D2" transform="translate(495,736)"/>
<path d="M0 0 C0.33 0 0.66 0 1 0 C1.33 43.89 1.66 87.78 2 133 C2.33 133 2.66 133 3 133 C3 154.45 3 175.9 3 198 C9.6 198 16.2 198 23 198 C23 198.33 23 198.66 23 199 C15.41 199 7.82 199 0 199 C0 133.33 0 67.66 0 0 Z " fill="#F2F2F2" transform="translate(223,585)"/>
<path d="M0 0 C4.95 0 9.9 0 15 0 C15 0.33 15 0.66 15 1 C63.18 1.33 111.36 1.66 161 2 C161 2.33 161 2.66 161 3 C108.53 3 56.06 3 2 3 C1.67 18.51 1.34 34.02 1 50 C0.67 50 0.34 50 0 50 C0 33.5 0 17 0 0 Z " fill="#E8E8E8" transform="translate(527,222)"/>
<path d="M0 0 C0.33 0 0.66 0 1 0 C1.33 45.87 1.66 91.74 2 139 C-12.85 139 -27.7 139 -43 139 C-43.66 138.34 -44.32 137.68 -45 137 C-30.15 137 -15.3 137 0 137 C0 91.79 0 46.58 0 0 Z " fill="#FDFDFD" transform="translate(494,553)"/>
<path d="M0 0 C0.33 0 0.66 0 1 0 C1.0154612 1.76407196 1.0154612 1.76407196 1.03123474 3.56378174 C1.12929334 14.68549716 1.23205571 25.80716067 1.33933926 36.92879105 C1.39433635 42.64554292 1.44771719 48.36230008 1.49731445 54.07910156 C1.54530295 59.60344282 1.59765443 65.12772756 1.65294075 70.65200043 C1.67320924 72.75212941 1.69194619 74.85227378 1.70907402 76.95243073 C1.73346537 79.91007506 1.76346678 82.8676161 1.79467773 85.82519531 C1.8004332 86.6797229 1.80618866 87.53425049 1.81211853 88.41467285 C1.8905766 95.02113317 2.44708408 101.3650089 3 108 C13.89 97.11 24.78 86.22 36 75 C36 78 36 78 34.67799377 79.6894989 C34.05923874 80.30460831 33.4404837 80.91971771 32.80297852 81.5534668 C32.10547989 82.25396652 31.40798126 82.95446625 30.68934631 83.67619324 C29.54567848 84.80134087 29.54567848 84.80134087 28.37890625 85.94921875 C27.60441635 86.72183548 26.82992645 87.49445221 26.03196716 88.29048157 C24.39190821 89.9238108 22.74825196 91.55353457 21.10131836 93.17993164 C18.56950416 95.68058206 16.04852516 98.19175486 13.52929688 100.70507812 C11.9381219 102.28708408 10.34634531 103.86848522 8.75390625 105.44921875 C7.99348526 106.20538986 7.23306427 106.96156097 6.44960022 107.74064636 C5.74894943 108.43168961 5.04829865 109.12273285 4.32641602 109.8347168 C3.70686539 110.44743942 3.08731476 111.06016205 2.44898987 111.69145203 C1 113 1 113 0 113 C0 75.71 0 38.42 0 0 Z " fill="#000000" transform="translate(496,348)"/>
<path d="M0 0 C0.33 0 0.66 0 1 0 C1 16.5 1 33 1 50 C-0.98 49.505 -0.98 49.505 -3 49 C-4.3348694 48.9048137 -5.67345874 48.85444026 -7.01165771 48.84178162 C-7.7996727 48.8319928 -8.58768768 48.82220398 -9.39958191 48.81211853 C-10.68243828 48.80348534 -10.68243828 48.80348534 -11.99121094 48.79467773 C-12.89887711 48.78477814 -13.80654327 48.77487854 -14.74171448 48.76467896 C-17.73924153 48.73311371 -20.73678443 48.70832614 -23.734375 48.68359375 C-25.81374522 48.66301993 -27.89311129 48.64202334 -29.97247314 48.62062073 C-35.44358972 48.56544428 -40.91474376 48.51601544 -46.38592529 48.46777344 C-51.96955701 48.41752612 -57.55313435 48.36185691 -63.13671875 48.30664062 C-74.09109938 48.19911318 -85.04552723 48.09765615 -96 48 C-96 47.67 -96 47.34 -96 47 C-64.32 47 -32.64 47 0 47 C0 31.49 0 15.98 0 0 Z " fill="#D9D9D9" transform="translate(495,736)"/>
<path d="M0 0 C0.33 0 0.66 0 1 0 C1.16781282 7.38714445 1.32777871 14.77442832 1.48217773 22.16186523 C1.53568866 24.67720426 1.59102469 27.19250512 1.64819336 29.70776367 C1.72985135 33.31420661 1.8050364 36.92073396 1.87890625 40.52734375 C1.90594131 41.65961899 1.93297638 42.79189423 1.96083069 43.95848083 C1.98092697 44.99948441 2.00102325 46.04048798 2.02172852 47.11303711 C2.04171402 48.03459091 2.06169952 48.95614471 2.08229065 49.90562439 C2 52 2 52 1 53 C-4.91171318 53.31725551 -10.82574564 53.35688456 -16.74511719 53.4050293 C-18.741387 53.42660095 -20.73756245 53.46069398 -22.73339844 53.50756836 C-25.60915433 53.57452953 -28.48294972 53.60202327 -31.359375 53.62109375 C-32.24913025 53.64892441 -33.1388855 53.67675507 -34.05560303 53.70542908 C-40.15054378 53.68523186 -40.15054378 53.68523186 -42.70812988 51.62210083 C-44.10253906 49.96118164 -44.10253906 49.96118164 -46 47 C-42.125 48.875 -42.125 48.875 -41 50 C-37.97213446 50.16034475 -34.96396008 50.25967963 -31.93359375 50.31640625 C-31.1286145 50.33505737 -30.32363525 50.3537085 -29.4942627 50.3729248 C-26.47545779 50.44143407 -23.45646492 50.50144741 -20.4375 50.5625 C-10.3209375 50.7790625 -10.3209375 50.7790625 0 51 C0 34.17 0 17.34 0 0 Z " fill="#212121" transform="translate(692,641)"/>
<path d="M0 0 C0 3 0 3 -1.79296875 5.0859375 C-2.58316406 5.84132813 -3.37335937 6.59671875 -4.1875 7.375 C-5.01507812 8.17550781 -5.84265625 8.97601563 -6.6953125 9.80078125 C-7.45585938 10.52652344 -8.21640625 11.25226563 -9 12 C-9.845625 12.845625 -10.69125 13.69125 -11.5625 14.5625 C-15.04166667 18.04166667 -18.52083333 21.52083333 -22 25 C-22 22 -22 22 -19.98046875 19.63989258 C-19.05878906 18.73392334 -18.13710938 17.8279541 -17.1875 16.89453125 C-16.69918701 16.4104631 -16.21087402 15.92639496 -15.70776367 15.42765808 C-14.14540174 13.8820986 -12.57293673 12.34728893 -11 10.8125 C-9.93942238 9.76696718 -8.87951771 8.72075127 -7.8203125 7.67382812 C-5.22130566 5.10791098 -2.6131361 2.55153533 0 0 Z " fill="#EBEBEB" transform="translate(620,335)"/>
<path d="M0 0 C0.59474121 0.21873779 1.18948242 0.43747559 1.80224609 0.6628418 C-0.6020423 3.15427447 -3.02315405 5.62868408 -5.44775391 8.1003418 C-6.12966797 8.80739258 -6.81158203 9.51444336 -7.51416016 10.24291992 C-8.17802734 10.91645508 -8.84189453 11.58999023 -9.52587891 12.28393555 C-10.13334961 12.9071167 -10.74082031 13.53029785 -11.36669922 14.17236328 C-13.33280468 15.77277312 -14.720185 16.25868239 -17.19775391 16.6628418 C-15.17474444 12.22657626 -12.21907632 9.2803282 -8.82275391 5.8503418 C-7.95650391 4.93478516 -7.95650391 4.93478516 -7.07275391 4.00073242 C-6.50814453 3.4290332 -5.94353516 2.85733398 -5.36181641 2.26831055 C-4.85086426 1.74390381 -4.33991211 1.21949707 -3.81347656 0.67919922 C-2.19775391 -0.3371582 -2.19775391 -0.3371582 0 0 Z " fill="#131313" transform="translate(547.19775390625,408.337158203125)"/>
<path d="M0 0 C0.94617188 0.20882813 1.89234375 0.41765625 2.8671875 0.6328125 C2.8671875 0.9628125 2.8671875 1.2928125 2.8671875 1.6328125 C1.8771875 1.6121875 0.8871875 1.5915625 -0.1328125 1.5703125 C-9.31346761 1.57668937 -9.31346761 1.57668937 -16.8828125 6.3828125 C-18.76654357 8.64652366 -20.25799632 10.84466205 -21.7578125 13.3828125 C-23.62885715 16.44452193 -26.09537651 17.81035091 -29.1328125 19.6328125 C-29.7928125 19.3028125 -30.4528125 18.9728125 -31.1328125 18.6328125 C-13.6608652 -2.01141573 -13.6608652 -2.01141573 0 0 Z " fill="#2E2E2E" transform="translate(704.1328125,356.3671875)"/>
<path d="M0 0 C0 0.66 0 1.32 0 2 C-1.43359375 3.41015625 -1.43359375 3.41015625 -3.4375 5.0625 C-8.22341701 9.12068366 -12.6114377 13.52000931 -17 18 C-17 15 -17 15 -15.65478516 13.2824707 C-15.03909668 12.66976318 -14.4234082 12.05705566 -13.7890625 11.42578125 C-13.12132812 10.75869141 -12.45359375 10.09160156 -11.765625 9.40429688 C-11.05921875 8.71400391 -10.3528125 8.02371094 -9.625 7.3125 C-8.57699219 6.2596582 -8.57699219 6.2596582 -7.5078125 5.18554688 C-2.26683218 0 -2.26683218 0 0 0 Z " fill="#E4E4E4" transform="translate(568,390)"/>
<path d="M0 0 C0.99 0 1.98 0 3 0 C3.33 0.99 3.66 1.98 4 3 C4.763125 3.45375 5.52625 3.9075 6.3125 4.375 C9.36579482 6.22117826 11.0605655 8.01625461 13 11 C12.67 11.99 12.34 12.98 12 14 C9.99387601 12.04761147 7.99507567 10.08862178 6 8.125 C5.42765625 7.56941406 4.8553125 7.01382813 4.265625 6.44140625 C2.80549218 4.99865596 1.39850702 3.5025626 0 2 C0 1.34 0 0.68 0 0 Z " fill="#0F1010" transform="translate(603,551)"/>
<path d="M0 0 C3.3046792 1.41318519 5.19508587 3.07279525 7.5 5.8125 C8.09941406 6.52019531 8.69882812 7.22789062 9.31640625 7.95703125 C11.23559869 10.2858889 13.14207754 12.62185925 15 15 C13.35 14.67 11.7 14.34 10 14 C9.67 13.01 9.34 12.02 9 11 C8.071875 10.566875 8.071875 10.566875 7.125 10.125 C3.26530439 8.08163174 1.83601455 3.81326099 0 0 Z " fill="#0F0F0F" transform="translate(536,572)"/>
<path d="M0 0 C0.85851562 0.36931641 0.85851562 0.36931641 1.734375 0.74609375 C0.373125 1.85984375 0.373125 1.85984375 -1.015625 2.99609375 C-3.5725673 5.12283959 -5.95672693 7.34839191 -8.265625 9.74609375 C-8.925625 9.08609375 -9.585625 8.42609375 -10.265625 7.74609375 C-9.03163437 6.37732259 -7.77781877 5.02640209 -6.515625 3.68359375 C-5.81953125 2.92949219 -5.1234375 2.17539062 -4.40625 1.3984375 C-2.265625 -0.25390625 -2.265625 -0.25390625 0 0 Z " fill="#0D0D0D" transform="translate(570.265625,479.25390625)"/>
<path d="M0 0 C3.45195767 1.4258086 5.1014256 3.09746334 7.25 6.125 C8.03117188 7.21167969 8.03117188 7.21167969 8.828125 8.3203125 C9.40820312 9.15175781 9.40820312 9.15175781 10 10 C8.68 9.67 7.36 9.34 6 9 C6 8.34 6 7.68 6 7 C5.34 7 4.68 7 4 7 C1.875 5.1875 1.875 5.1875 0 3 C0 2.01 0 1.02 0 0 Z " fill="#0F0F0F" transform="translate(525,560)"/>
<path d="M0 0 C1.32 0.33 2.64 0.66 4 1 C0.535 3.97 0.535 3.97 -3 7 C-3 3 -3 3 -1.75 1.1875 C-1.1725 0.795625 -0.595 0.40375 0 0 Z " fill="#212121" transform="translate(545,408)"/>
<path d="M0 0 C1.875 0.3125 1.875 0.3125 4 1 C4.66 1.99 5.32 2.98 6 4 C5.67 4.99 5.34 5.98 5 7 C3.29115995 5.37660195 1.62553283 3.70680947 0 2 C0 1.34 0 0.68 0 0 Z " fill="#1D1D1D" transform="translate(610,558)"/>
<path d="M0 0 C2.1875 0.3125 2.1875 0.3125 4 1 C2.35 2.32 0.7 3.64 -1 5 C-1.66 4.34 -2.32 3.68 -3 3 C-1.75 1.4375 -1.75 1.4375 0 0 Z " fill="#141414" transform="translate(568,479)"/>
</svg>
