<?xml version="1.0" encoding="UTF-8"?>
<svg version="1.1" xmlns="http://www.w3.org/2000/svg" width="1024" height="1024">
<path d="M0 0 C337.92 0 675.84 0 1024 0 C1024 337.92 1024 675.84 1024 1024 C686.08 1024 348.16 1024 0 1024 C0 686.08 0 348.16 0 0 Z " fill="#D1D1D1" transform="translate(0,0)"/>
<path d="M0 0 C1.16097702 0.02017181 2.32195404 0.04034363 3.51811218 0.06112671 C4.77130753 0.09332306 6.02450287 0.12551941 7.31567383 0.15869141 C8.59879959 0.18371735 9.88192535 0.20874329 11.20393372 0.23452759 C14.61212751 0.30111631 18.01992908 0.38002189 21.42779541 0.46148682 C24.90654467 0.5424681 28.38552372 0.61181002 31.86450195 0.68212891 C38.68833996 0.82177341 45.51183429 0.97443002 52.33520508 1.13525391 C52.63439413 6.62997594 52.85069327 12.11986021 52.99438477 17.62084961 C53.05432594 19.48659911 53.1359213 21.35179455 53.24047852 23.21557617 C54.13091257 39.50964639 54.13091257 39.50964639 49.8918457 44.63671875 C46.97753116 47.53675209 43.7197201 49.81385067 40.33520508 52.13525391 C38.89928637 53.35248385 37.47952445 54.58933605 36.08520508 55.85400391 C35.1493457 56.66611328 35.1493457 56.66611328 34.19458008 57.49462891 C30.83299313 60.46073504 27.58953818 63.55253602 24.33520508 66.63525391 C19.69154895 71.03402973 15.00577749 75.3434444 10.13354492 79.48925781 C8.2445435 81.21823522 6.60689848 83.05110571 4.96020508 85.01025391 C0.14000678 90.69278125 -5.45767769 95.61875484 -11.31323242 100.21337891 C-13.84471053 102.15827606 -13.84471053 102.15827606 -16.16479492 105.13525391 C-18.50201458 107.9399175 -20.79483825 109.91103749 -23.66479492 112.13525391 C-26.14033177 114.49003286 -28.40393 116.7934309 -30.47729492 119.51025391 C-32.88579882 122.40045859 -35.52599487 124.67031162 -38.37963867 127.10791016 C-42.67038427 130.91457164 -46.64019089 135.05156107 -50.66479492 139.13525391 C-53.90523949 142.42148183 -57.21310749 145.57188131 -60.66479492 148.63525391 C-63.29298194 150.98392916 -65.85935147 153.32981046 -68.35229492 155.82275391 C-70.73486759 158.20532657 -73.23043008 160.35955479 -75.82104492 162.51025391 C-78.20930229 164.61515871 -80.41559539 166.88268731 -82.66479492 169.13525391 C-84.40579016 170.74918893 -86.15647723 172.35270858 -87.91479492 173.94775391 C-98.63857639 183.7333322 -109.25116117 193.64154274 -119.53979492 203.88525391 C-120.11648926 204.45735596 -120.69318359 205.02945801 -121.28735352 205.61889648 C-123.49243043 207.83228315 -125.5696186 210.00581411 -127.42260742 212.52587891 C-127.8325293 213.05697266 -128.24245117 213.58806641 -128.66479492 214.13525391 C-129.32479492 214.13525391 -129.98479492 214.13525391 -130.66479492 214.13525391 C-130.90842773 214.71533203 -131.15206055 215.29541016 -131.40307617 215.89306641 C-133.30239884 219.26833331 -136.17718193 221.42618067 -139.08276367 223.93994141 C-140.99236407 226.06726597 -140.99236407 226.06726597 -140.32919121 228.92380905 C-140.10994043 229.98358585 -139.89068966 231.04336266 -139.66479492 232.13525391 C-138.07385317 240.4732229 -137.383074 248.39271672 -137.43774414 256.88037109 C-137.43745209 258.09156616 -137.43716003 259.30276123 -137.43685913 260.55065918 C-137.43800322 263.83090619 -137.44794453 267.11097636 -137.46200705 270.39118862 C-137.47461873 273.83445384 -137.47569305 277.27772355 -137.47805786 280.7210083 C-137.48424226 287.22301299 -137.50061134 293.72494939 -137.52075684 300.22692418 C-137.54541923 308.36562509 -137.55627781 316.50433738 -137.56713867 324.64306641 C-137.58654525 339.14051526 -137.62662144 353.63781538 -137.66479492 368.13525391 C-160.10479492 368.13525391 -182.54479492 368.13525391 -205.66479492 368.13525391 C-205.70509796 332.40885313 -205.70509796 332.40885313 -205.71362305 317.31103516 C-205.71953131 306.93163553 -205.72643483 296.5522441 -205.74023438 286.17285156 C-205.75028451 278.60990505 -205.7566726 271.04696525 -205.75888342 263.48401225 C-205.76017321 259.48930633 -205.76314675 255.49461959 -205.77052498 251.49991989 C-205.78537797 242.9475773 -205.771444 234.39661894 -205.69484329 225.84456635 C-205.67540151 223.44458132 -205.6641024 221.04451061 -205.66257858 218.64444733 C-205.65570146 215.5666058 -205.6095359 212.49223073 -205.54931641 209.41503906 C-205.55445031 208.55107199 -205.55958422 207.68710491 -205.5648737 206.79695702 C-205.42366633 202.22986655 -204.78128057 199.76087543 -201.6133728 196.37358093 C-199.40189181 194.32876272 -197.13586284 192.47236884 -194.58276367 190.86572266 C-190.4956963 188.12046628 -187.14985618 184.90773286 -183.72729492 181.38525391 C-183.22101563 180.87792725 -182.71473633 180.37060059 -182.19311523 179.84790039 C-179.49234233 177.11754087 -176.92838805 174.30355265 -174.42626953 171.39013672 C-170.92300047 167.37477304 -167.23805193 163.595257 -163.44604492 159.85400391 C-162.78447388 159.19621948 -162.12290283 158.53843506 -161.44128418 157.86071777 C-158.64901348 155.08458832 -155.85074076 152.31453853 -153.05297852 149.54394531 C-150.99438594 147.50358311 -148.93891589 145.46011059 -146.88354492 143.41650391 C-145.95354675 142.49895325 -145.95354675 142.49895325 -145.00476074 141.56286621 C-142.06345597 138.6378216 -139.23765224 135.67636059 -136.54760742 132.51806641 C-131.72314564 126.93723425 -126.44300676 121.80288813 -121.21208191 116.6073761 C-119.28327729 114.69148922 -117.3577489 112.77236118 -115.4329834 110.85241699 C-110.65477053 106.08747983 -105.87109676 101.32803736 -101.08758545 96.56842041 C-97.03444209 92.53509916 -92.983416 88.49967317 -88.93510437 84.46150208 C-87.05006717 82.58288474 -85.16201395 80.70733642 -83.27380371 78.83190918 C-77.99532778 73.57576702 -72.76686028 68.33579832 -67.94741821 62.6473999 C-64.38952454 58.45282874 -60.43691312 54.51837055 -56.10229492 51.13525391 C-54.0225776 49.42881918 -52.51219107 47.8591058 -50.78979492 45.82275391 C-46.56054979 40.85758286 -41.91277934 36.32937699 -37.2590332 31.7668457 C-34.11860243 28.66852172 -31.0933266 25.53164629 -28.21166992 22.18994141 C-24.46905489 17.85095246 -20.47651563 13.7992411 -16.41479492 9.76025391 C-15.70838867 9.04998047 -15.00198242 8.33970703 -14.27416992 7.60791016 C-13.59354492 6.92857422 -12.91291992 6.24923828 -12.21166992 5.54931641 C-11.29659668 4.63593506 -11.29659668 4.63593506 -10.36303711 3.70410156 C-6.79966512 0.41223434 -4.72860615 -0.1025728 0 0 Z " fill="#151515" transform="translate(651.664794921875,318.86474609375)"/>
<path d="M0 0 C91.41 0 182.82 0 277 0 C277 90.42 277 180.84 277 274 C257.86 274 238.72 274 219 274 C218.97885022 247.2243842 219.04380432 220.45184331 219.20263672 193.67681885 C219.22867598 189.2500452 219.25343235 184.82326465 219.27832031 180.39648438 C219.35097746 167.59764917 219.42559891 154.79882518 219.5 142 C219.665 113.29 219.83 84.58 220 55 C110.605 55.495 110.605 55.495 -1 56 C-0.67 37.52 -0.34 19.04 0 0 Z " fill="#161616" transform="translate(525,224)"/>
<path d="M0 0 C0 85.14 0 170.28 0 258 C-62.1534375 258.0309375 -62.1534375 258.0309375 -125.5625 258.0625 C-145.13929077 258.07615601 -145.13929077 258.07615601 -165.11157227 258.09008789 C-181.1307373 258.09460449 -181.1307373 258.09460449 -188.64585876 258.09544373 C-193.85985273 258.09636996 -199.07383613 258.10001113 -204.28782654 258.10557556 C-210.96436035 258.11269013 -217.64087679 258.11447952 -224.31741512 258.11307228 C-226.75159694 258.113366 -229.18577934 258.11531096 -231.61995804 258.11921513 C-234.94376447 258.12429313 -238.26751578 258.12295298 -241.59132385 258.12025452 C-242.97286856 258.12462351 -242.97286856 258.12462351 -244.38232327 258.12908077 C-255.28450164 258.10576361 -266.07751469 257.47489067 -277 257 C-277 238.52 -277 220.04 -277 201 C-204.4 201 -131.8 201 -57 201 C-57.32803675 147.15233723 -57.32803675 147.15233723 -57.65820312 93.3046875 C-57.72167969 82.78515625 -57.72167969 82.78515625 -57.75134277 77.82861328 C-57.77170715 74.43668315 -57.792598 71.04475676 -57.81384277 67.65283203 C-57.95270391 45.43488945 -58.03346544 23.21840335 -58 1 C-56.93581596 0.96574165 -55.87163193 0.93148331 -54.77519989 0.89618683 C-53.36506648 0.85075541 -51.95493312 0.80532227 -50.5447998 0.7598877 C-49.84504406 0.73736561 -49.14528831 0.71484352 -48.42432785 0.69163895 C-45.57914472 0.59993991 -42.7339817 0.50785479 -39.88892365 0.41234589 C-26.5802933 -0.03353983 -13.32984734 0 0 0 Z " fill="#151515" transform="translate(802,527)"/>
<path d="M0 0 C5.90385938 17.71157813 1 37.33035738 1 56 C-66.65 56 -134.3 56 -204 56 C-204 128.27 -204 200.54 -204 275 C-223.14 275 -242.28 275 -262 275 C-261.67 184.58 -261.34 94.16 -261 1 C-174.87 0.67 -88.74 0.34 0 0 Z " fill="#151515" transform="translate(496,223)"/>
<path d="M0 0 C19.14 0 38.28 0 58 0 C58 66 58 132 58 200 C125.65 200 193.3 200 263 200 C263 218.48 263 236.96 263 256 C255.125 257.125 255.125 257.125 251.14061832 257.1386652 C250.23465097 257.14414057 249.32868362 257.14961594 248.39526272 257.15525723 C246.93214452 257.156723 246.93214452 257.156723 245.43946838 257.15821838 C244.39062469 257.16314804 243.34178101 257.1680777 242.26115417 257.17315674 C238.74254517 257.1885087 235.22395416 257.19688721 231.70532227 257.20532227 C229.14131734 257.21503991 226.57731402 257.2251855 224.01331234 257.23572445 C217.84376911 257.26002153 211.6742255 257.27995695 205.50466069 257.29780969 C198.36568001 257.31868445 191.22672854 257.34580623 184.08776855 257.3729248 C165.24603091 257.44142165 146.40426322 257.5014429 127.5625 257.5625 C64.4190625 257.7790625 64.4190625 257.7790625 0 258 C0 172.86 0 87.72 0 0 Z " fill="#151515" transform="translate(234,528)"/>
<path d="M0 0 C22.44 0 44.88 0 68 0 C68 90.09 68 180.18 68 273 C45.23 273 22.46 273 -1 273 C-0.67 182.91 -0.34 92.82 0 0 Z " fill="#131313" transform="translate(336,414)"/>
<path d="M0 0 C2.74677561 1.37338781 3.43943325 3.49805591 4.87988281 6.10546875 C11.03545798 16.51681646 21.06069074 25.45092227 29.32177734 34.21289062 C38.46343426 43.94767803 47.41700001 53.86766668 56.1875 63.9375 C58.95841822 67.09061383 61.77644111 70.2008454 64.59375 73.3125 C65.87245098 74.74065954 67.14703398 76.17300605 68.38844299 77.63369751 C73.08335046 83.1275091 78.12022692 88.22637113 83.25912285 93.30372238 C84.77894125 94.80590382 86.2949771 96.31181334 87.81007385 97.8187561 C92.11183541 102.09625496 96.41948148 106.36779386 100.73120117 110.63525391 C103.38240431 113.25975384 106.02877893 115.88904191 108.67219734 118.52138138 C109.67788178 119.52085078 110.68546056 120.51841774 111.69494438 121.51404953 C113.09725558 122.89725105 114.49301699 124.28708352 115.88842773 125.67724609 C117.08253517 126.86016739 117.08253517 126.86016739 118.30076599 128.06698608 C120 130 120 130 120 132 C120.804375 132.37125 120.804375 132.37125 121.625 132.75 C124.56341804 134.29653581 127.24807025 136.14527474 130 138 C129.855625 138.97195313 129.71125 139.94390625 129.5625 140.9453125 C128.38208936 149.48042775 127.80664529 157.88040406 127.8125 166.5 C127.8115332 167.85955811 127.8115332 167.85955811 127.81054688 169.24658203 C127.85617065 174.89459806 128.3332964 180.39412632 129 186 C82.29595538 190.734058 82.29595538 190.734058 69.81266785 181.93769836 C62.94277879 176.29625782 57.34935957 169.39961341 52.2409668 162.15917969 C49.41801143 158.17954765 46.3016118 154.583581 43 151 C42.087948 150.00709961 42.087948 150.00709961 41.1574707 148.99414062 C39.22007121 146.90221251 37.26927331 144.82381037 35.3125 142.75 C34.61842041 142.01273682 33.92434082 141.27547363 33.20922852 140.51586914 C28.53882563 135.57481166 23.78050951 130.73739151 18.94213867 125.96142578 C16.39123572 123.43197371 13.94885877 120.8640395 11.625 118.125 C8.29263792 114.20167715 4.65585191 110.61790845 1 107 C-6.37399226 99.70254113 -6.37399226 99.70254113 -9.625 95.875 C-16.14348224 88.20134369 -23.49163078 81.17382296 -31.13671875 74.63671875 C-34.59821269 71.59611926 -37.81415436 68.32546437 -41 65 C-41.66773438 64.30390625 -42.33546875 63.6078125 -43.0234375 62.890625 C-43.65507813 62.20484375 -44.28671875 61.5190625 -44.9375 60.8125 C-45.50339844 60.20019531 -46.06929687 59.58789062 -46.65234375 58.95703125 C-48.33091668 56.51945143 -48.90060921 54.96817042 -49 52 C-47.62109375 49.6328125 -47.62109375 49.6328125 -45.4375 47.125 C-44.60992188 46.17109375 -43.78234375 45.2171875 -42.9296875 44.234375 C-41.95538161 43.15421026 -40.978665 42.07621682 -40 41 C-39.45762695 40.39736328 -38.91525391 39.79472656 -38.35644531 39.17382812 C-31.98471101 32.1197948 -25.51659321 25.37005346 -18.32421875 19.140625 C-14.87293047 15.96195949 -11.85342292 12.43874796 -8.8125 8.87109375 C-8.214375 8.25363281 -7.61625 7.63617188 -7 7 C-6.34 7 -5.68 7 -5 7 C-4.731875 6.401875 -4.46375 5.80375 -4.1875 5.1875 C-3.01506533 3.02775192 -1.80630718 1.64209744 0 0 Z " fill="#131313" transform="translate(576,501)"/>
<path d="M0 0 C22.44 0 44.88 0 68 0 C68.56152333 26.68127128 68.56152333 26.68127128 68.68359375 38.11132812 C68.7670861 45.89207688 68.86551808 53.67050542 69.05615234 61.44946289 C69.20899743 67.72615123 69.29212477 74.0003506 69.3282814 80.2787571 C69.35402351 82.66595445 69.40429767 85.05302511 69.48022079 87.43915367 C70.08055868 107.10021403 70.08055868 107.10021403 64.92852783 113.32339478 C62.06562031 116.21279672 58.97915161 118.6401323 55.60834122 120.90834999 C53.61166533 122.26357936 51.84124558 123.81025824 50.0625 125.4375 C49.46695313 125.953125 48.87140625 126.46875 48.2578125 127 C36.22320916 137.6365777 36.22320916 137.6365777 25.3359375 149.41015625 C23.36984058 151.74992657 21.16018463 153.83981537 19 156 C17.8907371 157.28729275 16.78703355 158.5793871 15.6875 159.875 C11.07347354 165.19422701 6.3259136 169.8370432 0 173 C0 115.91 0 58.82 0 0 Z " fill="#141414" transform="translate(447,319)"/>
<path d="M0 0 C22.77 0 45.54 0 69 0 C69 19.8 69 39.6 69 60 C46.23 60 23.46 60 0 60 C0 40.2 0 20.4 0 0 Z " fill="#131313" transform="translate(335,320)"/>
<path d="M0 0 C3.96 0 7.92 0 12 0 C12 0.33 12 0.66 12 1 C8.7 1.33 5.4 1.66 2 2 C2.00138269 3.4598274 2.00138269 3.4598274 2.00279331 4.94914627 C2.02532568 28.99883163 2.04157933 53.04851558 2.05181217 77.09820938 C2.0568964 88.73002761 2.06380909 100.36183867 2.07543945 111.99365234 C2.12742254 165.00478497 2.06032457 217.99783121 1 271 C0.67 271 0.34 271 0 271 C0 181.57 0 92.14 0 0 Z " fill="#040404" transform="translate(336,414)"/>
<path d="M0 0 C0.33 0 0.66 0 1 0 C2.13587848 24.44843206 1.96390793 48.85022864 1.5625 73.3125 C1.54968616 74.09395889 1.53687233 74.87541779 1.5236702 75.68055725 C1.36219877 85.45395919 1.18606733 95.22703498 1 105 C5.95 105 10.9 105 16 105 C16 105.33 16 105.66 16 106 C7.585 106.495 7.585 106.495 -1 107 C-1.12166522 71.31652556 -0.94374104 35.67391343 0 0 Z " fill="#0A0A0B" transform="translate(447,580)"/>
<path d="M0 0 C5.94 0 11.88 0 18 0 C17.67 0.66 17.34 1.32 17 2 C12.38 2.33 7.76 2.66 3 3 C2.34 19.5 1.68 36 1 53 C0.67 53 0.34 53 0 53 C0 35.51 0 18.02 0 0 Z " fill="#0A0B0C" transform="translate(525,224)"/>
<path d="M0 0 C1.875 0.3125 1.875 0.3125 4 1 C4.66 1.99 5.32 2.98 6 4 C5.01 4 4.02 4 3 4 C3 3.34 3 2.68 3 2 C-0.80881639 3.44472346 -2.29742886 5.32603071 -4 9 C-3.67 9.99 -3.34 10.98 -3 12 C-3.9075 12.2475 -4.815 12.495 -5.75 12.75 C-9.14607416 14.05618237 -10.55916188 15.39082822 -13 18 C-13.99 18.33 -14.98 18.66 -16 19 C-16 19.66 -16 20.32 -16 21 C-17.96147874 22.38938077 -19.96166576 23.7260411 -22 25 C-22.66 24.67 -23.32 24.34 -24 24 C-22.0305969 22.0305969 -20.06097844 20.06142049 -18.08984375 18.09375 C-16.50860125 16.5095519 -14.93899251 14.91373043 -13.375 13.3125 C-11 11 -11 11 -8 8.5625 C-4.87953971 5.89710684 -2.53657879 3.20802611 0 0 Z " fill="#ECEEF1" transform="translate(473,467)"/>
<path d="M0 0 C0 3 0 3 -1.80419922 5.17651367 C-2.62936035 5.99869385 -3.45452148 6.82087402 -4.3046875 7.66796875 C-5.19800781 8.56064453 -6.09132813 9.45332031 -7.01171875 10.37304688 C-7.4814209 10.83445068 -7.95112305 11.29585449 -8.43505859 11.77124023 C-9.87128806 13.18384911 -11.29370839 14.60933319 -12.71484375 16.03710938 C-19.73327592 23 -19.73327592 23 -22 23 C-20.49663014 19.17324037 -18.16477592 17.51559112 -15 15 C-14.67 14.01 -14.34 13.02 -14 12 C-13.01 11.67 -12.02 11.34 -11 11 C-10.34 10.01 -9.68 9.02 -9 8 C-8.34 7.67 -7.68 7.34 -7 7 C-6.731875 6.38125 -6.46375 5.7625 -6.1875 5.125 C-4.64164808 2.35873868 -2.76154672 1.45344564 0 0 Z " fill="#F0F2F1" transform="translate(555,409)"/>
<path d="M0 0 C5.28 0 10.56 0 16 0 C16 0.33 16 0.66 16 1 C18.97 1.495 18.97 1.495 22 2 C22 2.33 22 2.66 22 3 C10.45 3 -1.1 3 -13 3 C-13 2.67 -13 2.34 -13 2 C-6.565 1.505 -6.565 1.505 0 1 C0 0.67 0 0.34 0 0 Z " fill="#090B0B" transform="translate(474,276)"/>
<path d="M0 0 C0.99 0.33 1.98 0.66 3 1 C-0.33333333 4.33333333 -3.66666667 7.66666667 -7 11 C-7.85207031 11.91394531 -8.70414063 12.82789063 -9.58203125 13.76953125 C-11.8800595 15.88936022 -12.95629695 16.66181077 -16 17 C-11.01595832 10.96668638 -5.58084697 5.4815829 0 0 Z " fill="#1F2020" transform="translate(618,347)"/>
<path d="M0 0 C0.66 0 1.32 0 2 0 C0.55706084 3.3135357 -1.2411311 5.4758358 -3.80859375 8.00390625 C-4.55560547 8.74447266 -5.30261719 9.48503906 -6.07226562 10.24804688 C-6.85279297 11.01181641 -7.63332031 11.77558594 -8.4375 12.5625 C-9.21416016 13.33013672 -9.99082031 14.09777344 -10.79101562 14.88867188 C-12.23528605 16.31552646 -13.68160175 17.7403159 -15.13061523 19.16235352 C-16.76243957 20.76647286 -18.38481476 22.37915296 -20 24 C-20 19.95136013 -18.70680732 18.98442858 -16 16 C-14.27552633 14.45124284 -12.51307933 12.95871051 -10.734375 11.47265625 C-7.40314188 8.64410921 -4.4936263 5.63466239 -1.8125 2.1875 C-1.214375 1.465625 -0.61625 0.74375 0 0 Z " fill="#F5F5F5" transform="translate(617,345)"/>
<path d="M0 0 C2 2 2 2 2 5 C-4.27 5 -10.54 5 -17 5 C-16.67 4.01 -16.34 3.02 -16 2 C-10.72 2 -5.44 2 0 2 C0 1.34 0 0.68 0 0 Z " fill="#0B0D0C" transform="translate(800,780)"/>
</svg>
